<?xml version="1.0" encoding="UTF-8"?>
<!DOCTYPE svg PUBLIC "-//W3C//DTD SVG 1.1//EN" "http://www.w3.org/Graphics/SVG/1.1/DTD/svg11.dtd">
<!-- Creator: CorelDRAW 2020 (64-Bit) -->
<svg xmlns="http://www.w3.org/2000/svg" xml:space="preserve" width="145.821mm" height="43.8725mm" version="1.1" style="shape-rendering:geometricPrecision; text-rendering:geometricPrecision; image-rendering:optimizeQuality; fill-rule:evenodd; clip-rule:evenodd"
viewBox="0 0 1876.1 564.45"
 xmlns:xlink="http://www.w3.org/1999/xlink"
 xmlns:xodm="http://www.corel.com/coreldraw/odm/2003">
 <defs>
  <style type="text/css">
   <![CDATA[
    .fil5 {fill:url(#id0)}
    .fil6 {fill:url(#id1)}
    .fil4 {fill:url(#id2)}
    .fil0 {fill:url(#id3)}
    .fil2 {fill:url(#id4)}
    .fil1 {fill:url(#id5)}
    .fil3 {fill:url(#id6)}
   ]]>
  </style>
  <linearGradient id="id0" gradientUnits="userSpaceOnUse" x1="854.69" y1="53.51" x2="854.71" y2="597.93">
   <stop offset="0" style="stop-opacity:1; stop-color:#1106CC"/>
   <stop offset="1" style="stop-opacity:1; stop-color:#7634EB"/>
  </linearGradient>
  <linearGradient id="id1" gradientUnits="userSpaceOnUse" xlink:href="#id0" x1="854.69" y1="53.51" x2="854.71" y2="597.94">
  </linearGradient>
  <linearGradient id="id2" gradientUnits="userSpaceOnUse" xlink:href="#id0" x1="854.69" y1="53.51" x2="854.71" y2="597.93">
  </linearGradient>
  <linearGradient id="id3" gradientUnits="userSpaceOnUse" xlink:href="#id0" x1="854.69" y1="53.51" x2="854.71" y2="597.93">
  </linearGradient>
  <linearGradient id="id4" gradientUnits="userSpaceOnUse" xlink:href="#id0" x1="854.69" y1="53.51" x2="854.71" y2="597.93">
  </linearGradient>
  <linearGradient id="id5" gradientUnits="userSpaceOnUse" xlink:href="#id0" x1="854.7" y1="53.51" x2="854.72" y2="597.94">
  </linearGradient>
  <linearGradient id="id6" gradientUnits="userSpaceOnUse" xlink:href="#id0" x1="854.7" y1="53.51" x2="854.72" y2="597.94">
  </linearGradient>
 </defs>
 <g id="Layer_x0020_1">
  <metadata id="CorelCorpID_0Corel-Layer"/>
  <path class="fil0" d="M409.15 555.97l68.98 0c26.56,0 48.23,-21.66 48.23,-48.23l0 -143.01c0,-9.25 0.77,-18.5 2.31,-26.22 8.22,-38.69 36.18,-55.02 68.59,-58.4 15.07,-1.57 27.86,-9.86 35.53,-21.73 -1.95,-0.78 -3.89,-1.69 -5.8,-2.74 -11.71,-6.43 -19.48,-16.18 -23.15,-29.02l-6.59 -23.06c10.51,-5.87 25.11,-12.37 43.24,-18.04l0 -13.58c-8.48,-1.55 -13.88,-1.55 -24.68,-1.55 -36.24,0 -82.5,23.14 -101.78,77.89l-3.09 0 -1.33 -23.84c-1.41,-25.59 -22.53,-45.55 -48.15,-45.55l-55.4 0c1.55,32.39 3.09,68.63 3.09,124.15l0 252.92z"/>
  <path class="fil1" d="M269.89 56.72l0 156.11 -1.55 0c-16.96,-26.22 -53.2,-42.41 -99.48,-42.41 -90.21,0 -169.64,73.26 -168.87,200.49 0,117.22 71.71,193.55 161.16,193.55 48.58,0 94.08,-21.59 117.98,-64l1.54 0 5.4 55.52 104.1 0c-1.55,-25.45 -3.08,-70.17 -3.08,-112.58l0 -434.9 -68.98 0c-26.56,0 -48.22,21.66 -48.22,48.23zm0 331.15c0,10.02 -0.78,18.5 -3.09,26.99 -6.93,33.16 -33.93,56.28 -67.85,56.28 -48.58,0 -80.2,-40.09 -80.2,-104.09 0,-59.38 27.76,-107.18 80.97,-107.18 36.24,0 61.69,26.22 68.63,57.83 0.77,6.17 1.55,14.65 1.55,20.82l0 49.35z"/>
  <path class="fil2" d="M1090.84 507.74l0 -242.48 74.79 0 0 -0.25c-24.26,-2.48 -43.3,-23.08 -43.3,-47.98l0 -37.89c-1.62,-0.16 -3.27,-0.25 -4.93,-0.25l-27.34 0 0 -19.28c0,-35.51 14.9,-64.62 50.14,-66.93 24.54,-1.61 43.75,-21.1 45,-45.66l2.02 -39.32c-16.19,-4.63 -36.24,-7.71 -62.45,-7.71 -33.93,0 -74.8,10.02 -104.11,37.79 -33.93,30.85 -47.81,80.97 -47.81,126.46l0 14.65 -49.35 0 0 38.14c0,26.56 21.66,48.23 48.23,48.23l1.12 0 0 290.71 69.76 0c26.56,0 48.23,-21.66 48.23,-48.23z"/>
  <path class="fil3" d="M938.33 555.97c-3.86,-20.82 -5.4,-55.52 -5.4,-91.76l0 -131.09c0,-88.68 -40.09,-162.71 -165.78,-162.71 -68.63,0 -120.29,18.51 -146.51,33.16l6.59 23.06c3.67,12.84 11.45,22.59 23.15,29.02 11.71,6.43 24.1,7.76 36.91,3.97 18.6,-5.51 39.12,-9.01 59.03,-9.01 57.84,0 68.63,28.53 68.63,48.58l0 5.4c-133.4,-0.78 -221.31,46.26 -221.31,144.19 0,60.14 45.49,115.67 121.83,115.67 44.73,0 83.28,-16.19 107.96,-46.27l2.31 0 6.93 37.79 105.65 0zm-119.52 -137.25c0,6.93 -0.78,13.87 -2.31,20.04 -7.72,23.9 -31.62,43.18 -60.92,43.18 -26.22,0 -46.26,-14.65 -46.26,-44.73 0,-45.49 47.81,-60.14 109.5,-59.38l0 40.88z"/>
  <path class="fil4" d="M1191.7 135.62l0 43.28 -50.12 0 0 38.14c0,26.56 21.66,48.23 48.22,48.23l1.9 0 0 154.22c0,53.2 10.8,89.45 32.39,111.81 18.51,19.28 50.12,32.38 87.91,32.38 20.01,0 38.06,-1.4 52.61,-3.87 -11.39,-7.34 -20.91,-15.15 -27.64,-22.35l7.37 -29.78c3.28,-13.25 10.98,-23.46 22.84,-30.25l1.24 -0.69c-6.68,-4.91 -14.73,-8.15 -23.56,-9.09 -29.1,-3.07 -38.25,-24.05 -38.25,-65.91l0 -136.48 43.11 0c5.72,-22.56 18.31,-42.43 36.6,-58.09 -7.61,-16.65 -24.43,-28.28 -43.89,-28.28l-35.83 0 0 -107.95 -77.4 17.66c-22.2,5.07 -37.5,24.25 -37.5,47.01z"/>
  <path class="fil5" d="M1357.7 537.46c28.53,15.43 72.48,26.22 121.83,26.22 41.32,0 74.94,-7.58 100.73,-20.85l-9.93 -5.36 7.37 -29.78c8.36,-33.81 35.5,-46.24 64.4,-50.79 0.59,-4.91 0.89,-9.93 0.89,-15.05 -0.4,-28.93 -8.77,-52.62 -26.83,-72.18 -3.7,-3.17 -7.1,-6.42 -10.2,-9.74 -16.02,-13.56 -37.62,-24.91 -65.53,-34.52 -46.26,-16.19 -60.91,-25.44 -60.91,-43.18 0,-19.28 16.19,-30.85 44.71,-30.85 20.99,0 43.43,9.53 61.81,4.14 7.14,-20.13 20.01,-37.78 37.72,-51.7l3.03 -11.81c-23.13,-11.57 -62.46,-21.6 -106.41,-21.6 -93.3,0 -153.45,53.21 -153.45,123.38 -0.78,44.73 29.3,87.14 107.17,113.36 43.96,14.65 55.53,23.91 55.53,43.18 0,19.28 -14.65,31.61 -50.12,31.61 -16.89,0 -36.17,-3.66 -53.99,-8.92 -13.1,-3.87 -25.8,-2.39 -37.64,4.4 -11.85,6.79 -19.55,17 -22.84,30.25l-7.37 29.78z"/>
  <path class="fil6" d="M1590.79 537.46c28.53,15.43 72.48,26.22 121.83,26.22 107.95,0 163.47,-51.66 163.47,-121.83 -0.77,-55.52 -30.84,-91.76 -102.56,-116.44 -46.26,-16.19 -60.91,-25.44 -60.91,-43.18 0,-19.28 16.19,-30.84 44.72,-30.84 12.63,0 25.26,1.88 36.98,4.72 25.59,6.2 51.51,-9.37 58.06,-34.86l7.51 -29.22c-23.13,-11.57 -62.46,-21.6 -106.41,-21.6 -93.3,0 -153.45,53.21 -153.45,123.38 -0.78,44.73 29.3,87.14 107.18,113.36 43.96,14.65 55.53,23.9 55.53,43.18 0,19.28 -14.65,31.61 -50.12,31.61 -16.89,0 -36.17,-3.66 -53.99,-8.92 -13.1,-3.87 -25.79,-2.38 -37.63,4.41 -11.85,6.79 -19.55,16.99 -22.84,30.25l-7.37 29.78z"/>
 </g>
</svg>
